<svg width="1200" height="800" viewBox="0 0 1200 800" fill="none" xmlns="http://www.w3.org/2000/svg">
  <defs>
    <linearGradient id="bg" x1="0" y1="0" x2="0" y2="1">
      <stop offset="0" stop-color="#F7F7F7"/>
      <stop offset="1" stop-color="#EFEFEF"/>
    </linearGradient>
    <linearGradient id="land" x1="0" y1="0" x2="1" y2="1">
      <stop offset="0" stop-color="#DADADA"/>
      <stop offset="1" stop-color="#CFCFCF"/>
    </linearGradient>
  </defs>

  <rect width="1200" height="800" fill="url(#bg)"/>

  <g opacity="0.35">
    <path
      d="M130 230C190 150 330 120 440 160C520 190 560 170 640 140C720 110 820 120 900 170C980 220 1040 300 1010 370C980 440 900 450 840 500C780 550 700 600 600 620C500 640 430 620 360 580C290 540 220 510 180 450C140 390 90 310 130 230Z"
      fill="url(#land)"
    />
    <path
      d="M280 520C320 470 380 440 450 450C520 460 560 500 600 520C640 540 700 540 720 580C740 620 710 670 650 690C590 710 520 700 470 680C420 660 350 620 300 590C260 560 250 550 280 520Z"
      fill="#D5D5D5"
    />
  </g>

  <g opacity="0.35">
    <path d="M80 120H1120" stroke="#E2E2E2" stroke-width="2"/>
    <path d="M80 240H1120" stroke="#E2E2E2" stroke-width="2"/>
    <path d="M80 360H1120" stroke="#E2E2E2" stroke-width="2"/>
    <path d="M80 480H1120" stroke="#E2E2E2" stroke-width="2"/>
    <path d="M80 600H1120" stroke="#E2E2E2" stroke-width="2"/>
    <path d="M80 720H1120" stroke="#E2E2E2" stroke-width="2"/>
    <path d="M140 60V760" stroke="#E2E2E2" stroke-width="2"/>
    <path d="M320 60V760" stroke="#E2E2E2" stroke-width="2"/>
    <path d="M500 60V760" stroke="#E2E2E2" stroke-width="2"/>
    <path d="M680 60V760" stroke="#E2E2E2" stroke-width="2"/>
    <path d="M860 60V760" stroke="#E2E2E2" stroke-width="2"/>
    <path d="M1040 60V760" stroke="#E2E2E2" stroke-width="2"/>
  </g>

  <text x="80" y="90" fill="#B0B0B0" font-family="Arial, sans-serif" font-size="28" letter-spacing="6">
    CENTRAL EUROPE
  </text>
</svg>
